<mxfile host="app.diagrams.net" modified="2024-05-20T04:18:06.658Z" agent="Mozilla/5.0 (Windows NT 10.0; Win64; x64) AppleWebKit/537.36 (KHTML, like Gecko) Chrome/124.0.0.0 Safari/537.36 Edg/124.0.0.0" etag="Axv0zHrJBLP84bHaMd7W" version="24.4.4" type="github">
  <diagram name="第 1 页" id="RkeHohQUEbXu89OExb6v">
    <mxGraphModel dx="2525" dy="1768" grid="0" gridSize="10" guides="1" tooltips="1" connect="1" arrows="1" fold="1" page="0" pageScale="1" pageWidth="827" pageHeight="1169" math="0" shadow="0">
      <root>
        <mxCell id="0" />
        <mxCell id="1" parent="0" />
        <mxCell id="YUM9lPu6Y5M_eksQb39X-1" value="&lt;div&gt;&lt;br&gt;&lt;/div&gt;&lt;div&gt;&lt;br&gt;&lt;/div&gt;&lt;div&gt;&lt;br&gt;&lt;/div&gt;&lt;div&gt;&lt;br&gt;&lt;/div&gt;&lt;div&gt;&lt;br&gt;&lt;/div&gt;&lt;div&gt;&lt;br&gt;&lt;/div&gt;&lt;div&gt;&lt;br&gt;&lt;/div&gt;&lt;div&gt;&lt;br&gt;&lt;/div&gt;&lt;div&gt;&lt;br&gt;&lt;/div&gt;&lt;div&gt;&lt;br&gt;&lt;/div&gt;&lt;div&gt;&lt;br&gt;&lt;/div&gt;&lt;div&gt;&lt;br&gt;&lt;/div&gt;&lt;div&gt;&lt;br&gt;&lt;/div&gt;&lt;div&gt;&lt;br&gt;&lt;/div&gt;&lt;div&gt;&lt;br&gt;&lt;/div&gt;&lt;div&gt;&lt;br&gt;&lt;/div&gt;&lt;div&gt;&lt;br&gt;&lt;/div&gt;&lt;div&gt;&lt;br&gt;&lt;/div&gt;&lt;div&gt;Host OS&lt;/div&gt;" style="rounded=0;whiteSpace=wrap;html=1;" vertex="1" parent="1">
          <mxGeometry x="-488" y="-170" width="722" height="339" as="geometry" />
        </mxCell>
        <mxCell id="YUM9lPu6Y5M_eksQb39X-2" value="qemu" style="rounded=0;whiteSpace=wrap;html=1;" vertex="1" parent="1">
          <mxGeometry x="-194" y="-106" width="120" height="60" as="geometry" />
        </mxCell>
        <mxCell id="YUM9lPu6Y5M_eksQb39X-6" style="edgeStyle=none;curved=1;rounded=0;orthogonalLoop=1;jettySize=auto;html=1;entryX=0;entryY=0.5;entryDx=0;entryDy=0;fontSize=12;startSize=8;endSize=8;" edge="1" parent="1" source="YUM9lPu6Y5M_eksQb39X-3" target="YUM9lPu6Y5M_eksQb39X-2">
          <mxGeometry relative="1" as="geometry" />
        </mxCell>
        <mxCell id="YUM9lPu6Y5M_eksQb39X-8" style="edgeStyle=none;curved=1;rounded=0;orthogonalLoop=1;jettySize=auto;html=1;entryX=0.5;entryY=1;entryDx=0;entryDy=0;fontSize=12;startSize=8;endSize=8;" edge="1" parent="1" source="YUM9lPu6Y5M_eksQb39X-3" target="YUM9lPu6Y5M_eksQb39X-7">
          <mxGeometry relative="1" as="geometry" />
        </mxCell>
        <mxCell id="YUM9lPu6Y5M_eksQb39X-14" style="edgeStyle=none;curved=1;rounded=0;orthogonalLoop=1;jettySize=auto;html=1;entryX=0;entryY=0.5;entryDx=0;entryDy=0;fontSize=12;startSize=8;endSize=8;" edge="1" parent="1" source="YUM9lPu6Y5M_eksQb39X-3" target="YUM9lPu6Y5M_eksQb39X-13">
          <mxGeometry relative="1" as="geometry" />
        </mxCell>
        <mxCell id="YUM9lPu6Y5M_eksQb39X-16" style="edgeStyle=none;curved=1;rounded=0;orthogonalLoop=1;jettySize=auto;html=1;entryX=0;entryY=0.5;entryDx=0;entryDy=0;fontSize=12;startSize=8;endSize=8;" edge="1" parent="1" source="YUM9lPu6Y5M_eksQb39X-3" target="YUM9lPu6Y5M_eksQb39X-15">
          <mxGeometry relative="1" as="geometry" />
        </mxCell>
        <mxCell id="YUM9lPu6Y5M_eksQb39X-3" value="kata" style="rounded=0;whiteSpace=wrap;html=1;" vertex="1" parent="1">
          <mxGeometry x="-388" y="-106" width="120" height="60" as="geometry" />
        </mxCell>
        <mxCell id="YUM9lPu6Y5M_eksQb39X-4" value="image(ubuntu 2204, guest rootfs)" style="rounded=0;whiteSpace=wrap;html=1;" vertex="1" parent="1">
          <mxGeometry x="-11" y="-106" width="120" height="60" as="geometry" />
        </mxCell>
        <mxCell id="YUM9lPu6Y5M_eksQb39X-5" value="kata kernel(guest kernel)" style="rounded=0;whiteSpace=wrap;html=1;" vertex="1" parent="1">
          <mxGeometry x="-11" y="-30.5" width="120" height="60" as="geometry" />
        </mxCell>
        <mxCell id="YUM9lPu6Y5M_eksQb39X-7" value="OCI Spec" style="rounded=0;whiteSpace=wrap;html=1;" vertex="1" parent="1">
          <mxGeometry x="-188.5" y="-270" width="120" height="60" as="geometry" />
        </mxCell>
        <mxCell id="YUM9lPu6Y5M_eksQb39X-10" style="edgeStyle=none;curved=1;rounded=0;orthogonalLoop=1;jettySize=auto;html=1;entryX=0.5;entryY=0;entryDx=0;entryDy=0;fontSize=12;startSize=8;endSize=8;" edge="1" parent="1" source="YUM9lPu6Y5M_eksQb39X-9" target="YUM9lPu6Y5M_eksQb39X-7">
          <mxGeometry relative="1" as="geometry" />
        </mxCell>
        <mxCell id="YUM9lPu6Y5M_eksQb39X-9" value="k8s" style="rounded=0;whiteSpace=wrap;html=1;" vertex="1" parent="1">
          <mxGeometry x="-494" y="-369" width="731" height="60" as="geometry" />
        </mxCell>
        <mxCell id="YUM9lPu6Y5M_eksQb39X-12" style="edgeStyle=none;curved=1;rounded=0;orthogonalLoop=1;jettySize=auto;html=1;entryX=0.5;entryY=0;entryDx=0;entryDy=0;fontSize=12;startSize=8;endSize=8;" edge="1" parent="1" source="YUM9lPu6Y5M_eksQb39X-11" target="YUM9lPu6Y5M_eksQb39X-9">
          <mxGeometry relative="1" as="geometry" />
        </mxCell>
        <mxCell id="YUM9lPu6Y5M_eksQb39X-11" value="xxx 平台" style="rounded=0;whiteSpace=wrap;html=1;" vertex="1" parent="1">
          <mxGeometry x="-492.5" y="-467" width="731" height="60" as="geometry" />
        </mxCell>
        <mxCell id="YUM9lPu6Y5M_eksQb39X-13" value="startovirt" style="rounded=0;whiteSpace=wrap;html=1;" vertex="1" parent="1">
          <mxGeometry x="-194" y="-33" width="120" height="60" as="geometry" />
        </mxCell>
        <mxCell id="YUM9lPu6Y5M_eksQb39X-15" value="firecrack" style="rounded=0;whiteSpace=wrap;html=1;" vertex="1" parent="1">
          <mxGeometry x="-194" y="40" width="120" height="60" as="geometry" />
        </mxCell>
        <mxCell id="YUM9lPu6Y5M_eksQb39X-17" value="HDK" style="rounded=0;whiteSpace=wrap;html=1;" vertex="1" parent="1">
          <mxGeometry x="183" y="-194" width="120" height="60" as="geometry" />
        </mxCell>
        <mxCell id="YUM9lPu6Y5M_eksQb39X-18" value="HDK" style="rounded=0;whiteSpace=wrap;html=1;" vertex="1" parent="1">
          <mxGeometry x="89" y="-73" width="44" height="20" as="geometry" />
        </mxCell>
      </root>
    </mxGraphModel>
  </diagram>
</mxfile>
